<svg width="65" height="64" viewBox="0 0 65 64" fill="none" xmlns="http://www.w3.org/2000/svg">
<path d="M0.666016 16C0.666016 8.45753 0.666016 4.68629 3.00916 2.34315C5.35231 0 9.12354 0 16.666 0H48.666C56.2085 0 59.9797 0 62.3229 2.34315C64.666 4.68629 64.666 8.45753 64.666 16V48C64.666 55.5425 64.666 59.3137 62.3229 61.6569C59.9797 64 56.2085 64 48.666 64H16.666C9.12354 64 5.35231 64 3.00916 61.6569C0.666016 59.3137 0.666016 55.5425 0.666016 48V16Z" fill="#DAEDFD"/>
<path d="M44.6539 32.048C44.6419 35.1035 43.4824 38.1545 41.1514 40.4855C36.4654 45.1715 28.8664 45.1715 24.1804 40.4855C23.3464 39.6515 22.6684 38.723 22.1314 37.739M20.6719 31.805C20.7199 28.799 21.8869 25.808 24.1804 23.5145C28.8664 18.8285 36.4654 18.8285 41.1514 23.5145C41.9854 24.3485 42.6634 25.277 43.2004 26.261M38.5954 26.2625H43.8979V20.9585M26.7364 37.7375H21.4339V43.0415" stroke="#293244" stroke-width="2.25" stroke-linecap="round" stroke-linejoin="round"/>
</svg>
