<svg width="20" height="19" viewBox="0 0 20 19" fill="none" xmlns="http://www.w3.org/2000/svg">
<path d="M6.15938 5.70723L3.07682 5.70723C2.12833 5.70723 1.35938 6.47619 1.35938 7.42467C1.35938 7.99395 1.64162 8.52675 2.11298 8.84643L7.8317 12.7219C9.14114 13.609 10.8586 13.609 12.168 12.7219L17.8848 8.84739C18.3571 8.52771 18.6394 7.99491 18.6394 7.42563C18.6394 6.47715 17.8704 5.70723 16.9219 5.70723H13.8394M1.35938 7.44003L1.35938 16.2672C1.35938 17.328 2.21858 18.1872 3.27937 18.1872L16.7194 18.1872C17.7802 18.1872 18.6394 17.328 18.6394 16.2672L18.6394 7.44003M1.89505 17.5987L7.19809 12.2957M12.7987 12.2947L18.1018 17.5978M9.99841 0.907227V7.57539M9.99841 0.907227L11.9184 2.82723M9.99841 0.907227L8.07841 2.82723" stroke="white" stroke-width="1.5" stroke-linecap="round" stroke-linejoin="round"/>
</svg>
