<svg width="64" height="64" viewBox="0 0 64 64" fill="none" xmlns="http://www.w3.org/2000/svg">
<path d="M0 16C0 8.45753 0 4.68629 2.34315 2.34315C4.68629 0 8.45753 0 16 0H48C55.5425 0 59.3137 0 61.6569 2.34315C64 4.68629 64 8.45753 64 16V48C64 55.5425 64 59.3137 61.6569 61.6569C59.3137 64 55.5425 64 48 64H16C8.45753 64 4.68629 64 2.34315 61.6569C0 59.3137 0 55.5425 0 48V16Z" fill="#DAEDFD"/>
<path d="M38.8354 30.6661L33.4991 36.0023M33.4991 36.0023L28.1629 30.6661M33.4991 36.0023V19.9951M45.5041 38.6687C45.5041 41.6158 43.115 44.0049 40.1679 44.0049H26.8304C23.8832 44.0049 21.4941 41.6158 21.4941 38.6687" stroke="#293244" stroke-width="2.25" stroke-linecap="round" stroke-linejoin="round"/>
</svg>
